Coordinates
version=1
nRows=65
nColumns=12
inDegrees=yes

Units are S.I. units (second, meters, Newtons, ...)
Angles are in degrees

endheader
time	SC_y	SC_z	SC_x	AC_y	AC_z	AC_x	GH_y	GH_z	GH_yy	EL_x	PS_y
       0.0              -54.44          39.07           44.0          49.09        -0.7135          13.37         -70.88          53.78         -7.853          112.3          150.1
   0.01157              -54.44          39.06          43.99           49.1        -0.7123          13.37         -70.87          53.78          -7.83          112.3          150.1
   0.02313              -54.44          39.05          43.99           49.1        -0.7111          13.37         -70.85          53.77         -7.806          112.3          150.1
    0.0347              -54.44          39.05          43.98           49.1        -0.7098          13.37         -70.83          53.77          -7.78          112.2          150.1
   0.04627              -54.43          39.04          43.98          49.11        -0.7083          13.37         -70.81          53.77         -7.752          112.2          150.1
   0.05784              -54.43          39.03          43.97          49.11        -0.7068          13.37         -70.79          53.77         -7.723          112.2          150.0
    0.0694              -54.43          39.03          43.96          49.11        -0.7052          13.36         -70.77          53.77         -7.692          112.2          150.0
   0.08097              -54.42          39.02          43.96          49.12        -0.7035          13.36         -70.75          53.76         -7.658          112.2          150.0
   0.09254              -54.42          39.01          43.95          49.12        -0.7017          13.36         -70.72          53.76         -7.622          112.2          150.0
    0.1041              -54.42           39.0          43.94          49.13        -0.6997          13.36          -70.7          53.76         -7.584          112.2          150.0
    0.1157              -54.41          38.99          43.93          49.13        -0.6976          13.35         -70.67          53.76         -7.542          112.2          150.0
    0.1272              -54.41          38.98          43.92          49.14        -0.6953          13.35         -70.64          53.75         -7.498          112.1          150.0
    0.1388               -54.4          38.96          43.91          49.15        -0.6928          13.35         -70.61          53.75          -7.45          112.1          149.9
    0.1504              -54.39          38.95           43.9          49.15        -0.6901          13.34         -70.57          53.75         -7.398          112.1          149.9
    0.1619              -54.39          38.94          43.89          49.16        -0.6873          13.34         -70.53          53.74         -7.342          112.1          149.9
    0.1735              -54.38          38.92          43.88          49.17        -0.6841          13.33         -70.49          53.74         -7.281          112.0          149.9
    0.1851              -54.38           38.9          43.86          49.18        -0.6807          13.33         -70.45          53.73         -7.215          112.0          149.9
    0.1966              -54.37          38.89          43.85          49.19        -0.6771          13.32          -70.4          53.73         -7.143          112.0          149.8
    0.2082              -54.36          38.87          43.83           49.2         -0.673          13.32         -70.34          53.72         -7.064          112.0          149.8
    0.2198              -54.35          38.84          43.81          49.21        -0.6686          13.31         -70.28          53.72         -6.978          111.9          149.8
    0.2313              -54.34          38.82          43.79          49.22        -0.6637          13.31         -70.22          53.71         -6.884          111.9          149.7
    0.2429              -54.33          38.79          43.77          49.23        -0.6584           13.3         -70.15           53.7          -6.78          111.9          149.7
    0.2545              -54.32          38.76          43.74          49.25        -0.6525          13.29         -70.07          53.69         -6.665          111.8          149.7
     0.266               -54.3          38.73          43.72          49.26         -0.646          13.28         -69.98          53.68         -6.537          111.8          149.6
    0.2776              -54.29           38.7          43.69          49.28        -0.6387          13.27         -69.88          53.67         -6.396          111.7          149.6
    0.2892              -54.27          38.66          43.65           49.3        -0.6306          13.26         -69.78          53.66         -6.238          111.6          149.5
    0.3007              -54.25          38.61          43.62          49.32        -0.6215          13.25         -69.65          53.65         -6.061          111.6          149.5
    0.3123              -54.23          38.56          43.57          49.35        -0.6113          13.23         -69.52          53.64         -5.862          111.5          149.4
    0.3239               -54.2           38.5          43.53          49.38        -0.5997          13.22         -69.36          53.62         -5.637          111.4          149.3
    0.3355              -54.18          38.44          43.47          49.41        -0.5866           13.2         -69.19           53.6         -5.382          111.3          149.2
     0.347              -54.15          38.36          43.41          49.45        -0.5716          13.18         -68.99          53.58          -5.09          111.2          149.1
    0.3586              -54.11          38.28          43.34          49.49        -0.5545          13.15         -68.76          53.56         -4.756          111.1          149.0
    0.3702              -54.07          38.18          43.25          49.54        -0.5346          13.13         -68.49          53.53         -4.369          110.9          148.9
    0.3817              -54.02          38.07          43.16           49.6        -0.5116          13.09         -68.19           53.5         -3.921          110.8          148.7
    0.3933              -53.96          37.93          43.05          49.67        -0.4846          13.06         -67.83          53.46         -3.396          110.5          148.5
    0.4049              -53.89          37.78          42.91          49.75        -0.4528          13.01          -67.4          53.41         -2.777          110.3          148.3
    0.4164              -53.82          37.59          42.76          49.84        -0.4151          12.96          -66.9          53.36         -2.041          110.0          148.0
     0.428              -53.72          37.37          42.57          49.95        -0.3698           12.9         -66.29           53.3         -1.159          109.7          147.7
    0.4396               -53.6           37.1          42.34          50.09         -0.315          12.82         -65.56          53.22       -0.09286          109.3          147.4
    0.4511              -53.46          36.76          42.06          50.26        -0.2481          12.73         -64.67          53.13           1.21          108.8          146.9
    0.4627              -53.29          36.36          41.72          50.46        -0.1655          12.61         -63.57          53.01          2.818          108.1          146.3
    0.4743              -53.07          35.85          41.29          50.72       -0.06254          12.47         -62.19          52.87          4.824          107.4          145.6
    0.4858               -52.8           35.2          40.75          51.05        0.06718          12.29         -60.46          52.69           7.35          106.4          144.8
    0.4974              -52.45          34.39          40.07          51.46         0.2321          12.06         -58.26          52.46          10.56          105.2          143.6
     0.509              -52.01          33.34          39.19          51.99         0.4432          11.77         -55.44          52.16          14.67          103.6          142.2
    0.5205              -51.43           32.0          38.06          52.66         0.7141          11.39         -51.82          51.78          19.95          101.5          140.3
    0.5321              -50.71          30.29          36.63          53.53           1.06          10.91          -47.2           51.3          26.69          98.93          138.0
    0.5437              -49.79          28.14          34.82          54.62          1.495           10.3         -41.39          50.69          35.16          95.65          135.0
    0.5552              -48.67          25.52          32.61          55.94          2.025          9.568         -34.31          49.95          45.48          91.66          131.4
    0.5668              -47.37          22.48          30.06          57.48           2.64          8.713         -26.11          49.09          57.45          87.04          127.2
    0.5784              -45.97          19.19          27.29          59.15          3.305          7.789         -17.22          48.16          70.41          82.03          122.6
    0.5899              -44.57           15.9          24.53          60.81          3.971          6.864         -8.336          47.23          83.37          77.02          118.1
    0.6015              -43.27          12.86          21.97          62.35          4.585          6.009        -0.1299          46.37          95.33           72.4          113.9
    0.6131              -42.16          10.23          19.77          63.67          5.115          5.272           6.95          45.63          105.7          68.41          110.3
    0.6246              -41.24          8.082          17.96          64.76           5.55          4.668          12.76          45.02          114.1          65.14          107.3
    0.6362              -40.51           6.37          16.52          65.63          5.896          4.187          17.38          44.53          120.9          62.53          104.9
    0.6478              -39.94          5.031           15.4          66.31          6.167           3.81           21.0          44.15          126.1           60.5          103.1
    0.6593              -39.49          3.987          14.52          66.83          6.378          3.517          23.81          43.86          130.3          58.91          101.7
    0.6709              -39.15          3.171          13.83          67.25          6.543          3.287          26.02          43.63          133.5          57.67          100.5
    0.6825              -38.87          2.529          13.29          67.57          6.673          3.107          27.75          43.45          136.0          56.69          99.65
     0.694              -38.66           2.02          12.86          67.83          6.776          2.964          29.12           43.3          138.0          55.92          98.94
    0.7056              -38.48          1.611          12.52          68.04          6.859          2.849          30.23          43.19          139.6          55.29          98.38
    0.7172              -38.34           1.28          12.24           68.2          6.926          2.756          31.12          43.09          140.9          54.79          97.92
    0.7287              -38.22          1.009          12.02          68.34           6.98           2.68          31.85          43.02          142.0          54.38          97.55
    0.7403              -38.13         0.7854          11.83          68.45          7.026          2.617          32.46          42.95          142.9          54.04          97.24
